<?xml version="1.0" standalone="no"?>
<!DOCTYPE svg PUBLIC "-//W3C//DTD SVG 20010904//EN"
 "http://www.w3.org/TR/2001/REC-SVG-20010904/DTD/svg10.dtd">
<svg version="1.0" xmlns="http://www.w3.org/2000/svg"
 width="250.000000pt" height="250.000000pt" viewBox="0 0 250.000000 250.000000"
 preserveAspectRatio="xMidYMid meet">
<metadata>
Created by potrace 1.11, written by Peter Selinger 2001-2013
</metadata>
<g transform="translate(0.000000,250.000000) scale(0.100000,-0.100000)"
fill="#000000" stroke="none">
<path d="M1233 2493 l1237 -3 0 -1240 0 -1240 -1237 -3 -1238 -2 1253 -3 1252
-2 0 1250 0 1250 -1252 -2 -1253 -3 1238 -2z"/>
<path d="M130 1305 l0 -1145 1165 0 1165 0 0 1145 0 1145 -1165 0 -1165 0 0
-1145z m2230 0 l0 -1045 -1065 0 -1065 0 0 1045 0 1045 1065 0 1065 0 0 -1045z"/>
<path d="M1093 2282 c-18 -3 -31 -28 -79 -150 -31 -81 -80 -208 -109 -282 -29
-74 -128 -328 -219 -565 -92 -236 -172 -439 -177 -450 -5 -11 -39 -96 -75
-190 -36 -93 -68 -176 -71 -183 -4 -10 36 -12 193 -10 l198 3 63 175 c35 96
70 189 77 205 l13 30 364 0 364 0 80 -207 80 -208 202 0 203 0 -19 47 c-81
205 -486 1214 -496 1238 -7 17 -60 147 -117 290 l-103 260 -175 0 c-96 0 -185
-1 -197 -3z m303 -785 c63 -169 113 -310 111 -315 -5 -7 -474 -8 -482 -1 -2 3
51 154 118 337 97 264 123 327 130 309 4 -12 60 -160 123 -330z"/>
</g>
</svg>
